#!OML:ASF X:\2005_08_12_Meinard\c3d\meinard.ASF
:FULLY-SPECIFIED
:DEGREES
55
root 4.32854 16.9581 0.833448 123.518 -86.3345 -141.041
lowerback 28.4657 -1.49354 0.365488
upperback 1.81538 -2.00124 0.54141
thorax -13.8193 -1.00213 1.22895
lowerneck -16.17 -2.37586 -4.19624
upperneck 10.5788 -2.92769 4.61413
head 5.97473 -1.23096 1.86352
rclavicle 1.90367e-014 3.06625e-014
rhumerus -22.3329 -41.0084 3.98449
rradius 7.62755
rwrist 41.6406
rhand -9.48742 -5.60306
rfingers 7.12502
rthumb 16.4772 -34.9234
lclavicle 1.90367e-014 3.06625e-014
lhumerus -65.6104 72.4589 -53.5438
lradius 6.15671
lwrist -72.9272
lhand -17.7626 -5.60403
lfingers 7.12502
lthumb 8.49943 24.2049
rfemur 19.1008 3.09681 13.8038
rtibia 15.5598
rfoot -15.5823 -6.36578
rtoes -20.6608
lfemur 11.9819 -9.97093 -15.2918
ltibia 29.257
lfoot -21.8745 13.6089
ltoes -21.5694
56
root 4.32918 16.9581 0.833409 123.565 -86.3252 -141.087
lowerback 28.4799 -1.48717 0.345465
upperback 1.82025 -1.99824 0.551905
thorax -13.8201 -0.999297 1.25187
lowerneck -16.1691 -2.38099 -4.2041
upperneck 10.5824 -2.93236 4.61008
head 5.97598 -1.23385 1.86304
rclavicle 1.90088e-015 7.45443e-015
rhumerus -22.3108 -41.0282 3.97062
rradius 7.60792
rwrist 41.6392
rhand -9.47669 -5.61902
rfingers 7.12502
rthumb 16.4875 -34.9385
lclavicle 1.90088e-015 7.45443e-015
lhumerus -65.6846 72.4593 -53.6111
lradius 6.14793
lwrist -72.9847
lhand -17.7438 -5.56712
lfingers 7.12502
lthumb 8.51759 24.2411
rfemur 19.1107 3.1642 13.8414
rtibia 15.5471
rfoot -15.5886 -6.42984
rtoes -20.647
lfemur 11.9783 -9.92739 -15.2665
ltibia 29.2592
lfoot -21.8708 13.5698
ltoes -21.5701
57
root 4.32912 16.9583 0.833948 123.66 -86.3221 -141.17
lowerback 28.4629 -1.482 0.337489
upperback 1.84081 -1.99548 0.550699
thorax -13.7864 -0.998499 1.25296
lowerneck -16.205 -2.38309 -4.21032
upperneck 10.5609 -2.93538 4.63483
head 5.97571 -1.23326 1.87142
rclavicle 2.0978e-014 -1.88845e-014
rhumerus -22.3139 -41.0823 3.95131
rradius 7.5942
rwrist 41.6388
rhand -9.501 -5.68322
rfingers 7.12502
rthumb 16.4641 -35.0046
lclavicle 2.0978e-014 -1.88845e-014
lhumerus -65.8499 72.4887 -53.7424
lradius 6.17587
lwrist -73.014
lhand -17.7387 -5.52691
lfingers 7.12502
lthumb 8.52253 24.2811
rfemur 19.1022 3.14755 13.8275
rtibia 15.5345
rfoot -15.5777 -6.40329
rtoes -20.6482
lfemur 11.9693 -9.93218 -15.2733
ltibia 29.2616
lfoot -21.8762 13.5831
ltoes -21.5683
58
root 4.32965 16.9587 0.833952 123.559 -86.2965 -141.061
lowerback 28.4637 -1.47809 0.337272
upperback 1.85458 -1.98944 0.564674
thorax -13.7699 -0.995825 1.26661
lowerneck -16.2284 -2.3926 -4.21733
upperneck 10.5495 -2.94554 4.63632
head 5.97655 -1.23808 1.87186
rclavicle -5.08765e-015 2.64881e-014
rhumerus -22.3112 -41.1216 3.94276
rradius 7.5802
rwrist 41.6081
rhand -9.5401 -5.69409
rfingers 7.12502
rthumb 16.4265 -35.0186
lclavicle -5.08765e-015 2.64881e-014
lhumerus -65.9807 72.4936 -53.8713
lradius 6.16706
lwrist -73.036
lhand -17.7277 -5.54521
lfingers 7.12502
lthumb 8.53311 24.2624
rfemur 19.0951 3.21339 13.8859
rtibia 15.5272
rfoot -15.5797 -6.47013
rtoes -20.6445
lfemur 11.9603 -9.93678 -15.2489
ltibia 29.2631
lfoot -21.8781 13.594
ltoes -21.5663
59
root 4.33041 16.9589 0.834077 123.635 -86.293 -141.134
lowerback 28.477 -1.47505 0.336037
upperback 1.86233 -1.98776 0.555007
thorax -13.7682 -0.995644 1.25576
lowerneck -16.2247 -2.39439 -4.21186
upperneck 10.523 -2.95052 4.65024
head 5.96791 -1.23936 1.87491
rclavicle -7.12363e-015 -1.87852e-014
rhumerus -22.3395 -41.1491 3.92691
rradius 7.60055
rwrist 41.5777
rhand -9.49921 -5.77682
rfingers 7.12502
rthumb 16.4659 -35.0981
lclavicle -7.12363e-015 -1.87852e-014
lhumerus -66.0505 72.5045 -53.9461
lradius 6.17333
lwrist -73.0674
lhand -17.699 -5.51071
lfingers 7.12502
lthumb 8.56086 24.2957
rfemur 19.0891 3.21062 13.8816
rtibia 15.522
rfoot -15.5709 -6.46189
rtoes -20.6449
lfemur 11.9565 -9.93416 -15.2498
ltibia 29.2613
lfoot -21.8751 13.5979
ltoes -21.5624
60
root 4.32999 16.9591 0.834334 123.921 -86.2824 -141.411
lowerback 28.4572 -1.46686 0.308895
upperback 1.88449 -1.98576 0.565063
thorax -13.73 -0.993677 1.28112
lowerneck -16.2712 -2.39467 -4.21813
upperneck 10.525 -2.94522 4.63367
head 5.97577 -1.23768 1.87089
rclavicle 1.04673e-015 3.77691e-015
rhumerus -22.2953 -41.2075 3.88365
rradius 7.58972
rwrist 41.6018
rhand -9.47246 -5.86697
rfingers 7.12502
rthumb 16.4916 -35.1861
lclavicle 1.04673e-015 3.77691e-015
lhumerus -66.2382 72.5154 -54.1204
lradius 6.19087
lwrist -73.0919
lhand -17.6129 -5.51056
lfingers 7.12502
lthumb 8.64391 24.2925
rfemur 19.0723 3.2021 13.864
rtibia 15.5218
rfoot -15.563 -6.43103
rtoes -20.647
lfemur 11.957 -9.93556 -15.2633
ltibia 29.2577
lfoot -21.8826 13.6224
ltoes -21.5584
61
root 4.33055 16.9597 0.834759 124.001 -86.2714 -141.481
lowerback 28.4569 -1.46059 0.29466
upperback 1.89846 -1.98194 0.573179
thorax -13.7125 -0.991365 1.29692
lowerneck -16.2944 -2.40174 -4.2237
upperneck 10.5099 -2.95504 4.65327
head 5.97567 -1.24091 1.87692
rclavicle -1.57552e-015 1.15295e-014
rhumerus -22.3002 -41.2482 3.87802
rradius 7.60124
rwrist 41.5731
rhand -9.46331 -5.90948
rfingers 7.12502
rthumb 16.5004 -35.2279
lclavicle -1.57552e-015 1.15295e-014
lhumerus -66.3877 72.5317 -54.2475
lradius 6.21957
lwrist -73.1261
lhand -17.5673 -5.49929
lfingers 7.12502
lthumb 8.68788 24.3019
rfemur 19.0415 3.13449 13.8319
rtibia 15.537
rfoot -15.5499 -6.34857
rtoes -20.6517
lfemur 11.9505 -9.93115 -15.2578
ltibia 29.2473
lfoot -21.8761 13.6295
ltoes -21.5569
